<svg width="193" height="76" viewBox="0 0 193 76" fill="none" xmlns="http://www.w3.org/2000/svg">
<g clip-path="url(#clip0_30_52)">
<path d="M9.51811 0.324707V15.1919H5.67175V0.324707H0V37.3954H5.67175V21.0999H9.51811V37.3954H15.1247V0.324707H9.51811Z" fill="white"/>
<path d="M24.7732 37.7849H23.6649C19.1666 37.7849 16.7545 35.3178 16.7545 30.7732V23.3721H22.3611V29.8643C22.3611 31.5523 22.8826 32.4612 24.1865 32.4612C25.5555 32.4612 26.0119 31.5523 26.0119 29.28V28.436C26.0119 25.7742 25.7511 24.8653 23.7301 22.2035L20.2097 17.594C17.7976 14.4777 17.0805 12.1405 17.0805 8.43992V7.27132C17.0805 2.27229 19.623 0 24.0561 0H25.0992C29.7278 0 31.5532 2.0126 31.5532 6.42732V12.53H26.077V7.14147C26.077 5.90794 25.8163 4.93411 24.4472 4.93411C23.0782 4.93411 22.8174 5.7781 22.8174 7.53101V8.24515C22.8174 10.3227 23.2086 11.4913 25.0992 13.8934L28.6847 18.5029C31.2273 21.8139 32.0096 23.6967 32.0096 27.8517V29.0203C32.0748 34.5387 29.7278 37.7849 24.7732 37.7849Z" fill="white"/>
<path d="M46.5475 0.324707V5.71327H39.3763V15.4516H44.9829V21.035H39.3763V31.7472H46.8735V37.3954H33.7046V0.324707H46.5475Z" fill="white"/>
<path d="M62.1285 30.4487H58.0214L57.2391 37.3954H52.2192L56.7827 0.324707H63.4975L68.3218 37.3954H62.8456L62.1285 30.4487ZM61.4766 24.9303L59.9771 11.2317L58.5429 24.9303H61.4766Z" fill="white"/>
<path d="M74.8409 37.3954H69.1692V0.324707H78.2961C82.0773 0.324707 83.9679 1.94777 83.9679 6.03788V12.595C83.9679 15.7113 82.5336 16.8799 81.4906 17.3344C82.7292 17.8538 83.9679 18.8925 83.9679 21.3596V34.3441C83.9679 35.8373 84.2938 36.5514 84.4894 37.0708V37.3305H78.8829C78.6221 36.941 78.3613 36.2917 78.3613 34.2791V23.1774C78.3613 21.5543 78.0354 20.8402 76.2752 20.8402H74.8409V37.3954ZM74.8409 15.5815H76.3404C77.905 15.5815 78.3613 14.6076 78.3613 12.9197V7.72587C78.3613 6.10281 78.0354 5.32374 76.3404 5.32374H74.8409V15.5815Z" fill="white"/>
<path d="M95.4418 5.71327V37.3954H89.8352V5.71327H85.0762V0.324707H100.136V5.71327H95.4418Z" fill="white"/>
<path d="M115.391 30.4487H111.284L110.501 37.3954H105.481L110.045 0.324707H116.695L121.519 37.3954H116.043L115.391 30.4487ZM114.739 24.9303L113.239 11.2317L111.805 24.9303H114.739Z" fill="white"/>
<path d="M127.582 0.324707L132.406 20.191V0.324707H137.556V37.3954H132.993L127.582 16.1009V37.3954H122.432V0.324707H127.582Z" fill="white"/>
<path d="M139.642 0.324707H148.313C153.137 0.324707 154.637 3.05145 154.637 7.46618V29.9943C154.637 34.5388 152.942 37.3954 148.313 37.3954H139.642V0.324707ZM145.314 32.0069H146.683C148.378 32.0069 148.9 31.0979 148.9 29.1503V8.24525C148.9 6.10281 148.378 5.38866 146.944 5.38866H145.314V32.0069Z" fill="white"/>
<path d="M0 38.1743H8.6706C13.4948 38.1743 14.9943 40.9011 14.9943 45.3158V67.8439C14.9943 72.3885 13.2993 75.245 8.6706 75.245H0V38.1743ZM5.67175 69.7916H7.04079C8.7358 69.7916 9.25734 68.8826 9.25734 66.935V46.0949C9.25734 43.9524 8.7358 43.2383 7.30156 43.2383H5.67175V69.7916Z" fill="white"/>
<path d="M29.8582 38.1743V43.498H22.6218V53.2363H28.2936V58.8846H22.6218V69.5968H30.1841V75.1801H17.0153V38.1743H29.8582Z" fill="white"/>
<path d="M39.1807 75.5696H38.0724C33.5741 75.5696 31.162 73.1025 31.162 68.5579V61.1568H36.7685V67.649C36.7685 69.337 37.2901 70.2459 38.5939 70.2459C39.963 70.2459 40.4193 69.337 40.4193 67.0647V66.2207C40.4193 63.5589 40.1586 62.65 38.1376 59.9882L34.552 55.3787C32.1399 52.2624 31.4228 49.9252 31.4228 46.2246V45.056C31.4228 40.1219 33.9001 37.8496 38.3984 37.8496H39.4414C44.0701 37.8496 45.8955 39.8622 45.8955 44.2769V50.3796H40.4193V45.056C40.4193 43.8225 40.1586 42.8486 38.7895 42.8486C37.4205 42.8486 37.1597 43.6926 37.1597 45.4455V46.0948C37.1597 48.1723 37.5509 49.3409 39.4414 51.743L43.027 56.3525C45.5695 59.6636 46.3518 61.5463 46.3518 65.7013V66.87C46.4822 72.3884 44.1353 75.5696 39.1807 75.5696Z" fill="white"/>
<path d="M53.7186 38.1743H48.0469V75.245H53.7186V38.1743Z" fill="white"/>
<path d="M61.0854 75.6994C57.7606 75.6994 55.6744 72.7779 55.6744 68.9475V45.7701C55.6744 41.6151 57.3042 37.7847 62.65 37.7847H63.7583C69.8212 37.7847 70.5383 41.7449 70.5383 46.0947V49.8602H65.0621V45.7052C65.0621 44.0821 64.671 43.1732 63.2368 43.1732C62.0633 43.1732 61.4766 44.0821 61.4766 45.7052V67.3893C61.4766 69.1422 62.1937 70.0511 63.3019 70.0511C64.7362 70.0511 65.3881 69.0773 65.3881 67.649V58.3651H62.8456V52.7168H70.7339V75.2449H67.5395C67.4743 75.0502 67.0179 73.2323 66.5616 71.6093C66.1704 72.8428 64.2798 75.7643 61.4114 75.7643H61.0854V75.6994Z" fill="white"/>
<path d="M77.7747 38.1743L82.599 58.0406V38.1743H87.7492V75.1801H83.1857L77.7747 53.8856V75.1801H72.6897V38.1743H77.7747Z" fill="white"/>
<path d="M102.483 75.5696H101.374C96.876 75.5696 94.4639 73.1025 94.4639 68.5579V61.1568H100.07V67.649C100.07 69.337 100.592 70.2459 101.896 70.2459C103.265 70.2459 103.721 69.337 103.721 67.0647V66.2207C103.721 63.5589 103.46 62.65 101.439 59.9882L97.8539 55.3787C95.4418 52.2624 94.7246 49.9252 94.7246 46.2246V45.056C94.7246 40.1219 97.202 37.8496 101.7 37.8496H102.743C107.372 37.8496 109.197 39.8622 109.197 44.2769V50.3796H103.721V45.056C103.721 43.8225 103.46 42.8486 102.091 42.8486C100.722 42.8486 100.462 43.6926 100.462 45.4455V46.0948C100.462 48.1723 100.853 49.3409 102.743 51.743L106.329 56.3525C108.871 59.6636 109.654 61.5463 109.654 65.7013V66.87C109.784 72.3884 107.437 75.5696 102.483 75.5696Z" fill="white"/>
<path d="M120.671 67.649V59.0792H126.213V67.649C126.213 71.6093 124.909 75.6345 119.433 75.6345H118.194C112.522 75.6345 111.218 71.5444 111.218 67.8438V45.2508C111.218 41.4853 112.848 37.8496 117.998 37.8496H119.302C125.496 37.8496 126.213 41.9397 126.213 45.5754V52.1975H120.671V45.7052C120.671 44.0822 120.15 43.2382 118.781 43.2382C117.412 43.2382 117.021 44.0172 117.021 45.7052V67.7139C117.021 69.337 117.542 70.2459 118.846 70.2459C120.15 70.181 120.671 69.1422 120.671 67.649Z" fill="white"/>
<path d="M137.491 58.8846H133.645V75.1801H128.038V38.1743H133.645V52.9766H137.491V38.1743H143.163V75.1801H137.491V58.8846Z" fill="white"/>
<path d="M160.569 66.9348C160.569 72.1286 158.809 75.6345 153.398 75.6345H152.42C147.009 75.6345 145.119 72.1286 145.119 66.9348V46.2895C145.119 41.1606 147.074 37.7847 152.355 37.7847H153.333C158.809 37.7847 160.569 41.1606 160.569 46.2246V66.9348ZM154.832 46.0298C154.832 44.0821 154.18 43.1732 152.876 43.1732C151.442 43.1732 150.855 44.1471 150.855 46.0298V67.3244C150.855 68.9474 151.312 70.181 152.876 70.181C154.376 70.181 154.767 68.9474 154.767 67.3244V46.0298H154.832Z" fill="white"/>
<path d="M177.845 66.9348C177.845 72.1286 176.085 75.6345 170.674 75.6345H169.696C164.285 75.6345 162.395 72.1286 162.395 66.9348V46.2895C162.395 41.1606 164.35 37.7847 169.631 37.7847H170.609C176.085 37.7847 177.845 41.1606 177.845 46.2246V66.9348ZM172.043 46.0298C172.043 44.0821 171.391 43.1732 170.087 43.1732C168.653 43.1732 168.066 44.1471 168.066 46.0298V67.3244C168.066 68.9474 168.523 70.181 170.087 70.181C171.587 70.181 171.978 68.9474 171.978 67.3244V46.0298H172.043Z" fill="white"/>
<path d="M185.407 38.1743V69.467H192.318V75.1801H179.736V38.1743H185.407Z" fill="white"/>
<rect x="126.095" y="75.5" width="550.851" height="125.141" fill="white"/>
</g>
<defs>
<clipPath id="clip0_30_52">
<rect width="192.318" height="75.6996" fill="white"/>
</clipPath>
</defs>
</svg>
