<svg width="193" height="76" viewBox="0 0 193 76" fill="none" xmlns="http://www.w3.org/2000/svg">
<g clip-path="url(#clip0_60_299)">
<path d="M9.51811 0.324585V15.1918H5.67175V0.324585H0V37.3953H5.67175V21.0998H9.51811V37.3953H15.1247V0.324585H9.51811Z" fill="white"/>
<path d="M24.7732 37.7849H23.6649C19.1666 37.7849 16.7545 35.3178 16.7545 30.7732V23.3721H22.3611V29.8643C22.3611 31.5523 22.8826 32.4612 24.1865 32.4612C25.5555 32.4612 26.0119 31.5523 26.0119 29.28V28.436C26.0119 25.7742 25.7511 24.8653 23.7301 22.2035L20.2097 17.594C17.7976 14.4777 17.0805 12.1405 17.0805 8.43992V7.27132C17.0805 2.27229 19.623 0 24.0561 0H25.0992C29.7278 0 31.5532 2.0126 31.5532 6.42732V12.53H26.077V7.14147C26.077 5.90794 25.8163 4.93411 24.4472 4.93411C23.0782 4.93411 22.8174 5.7781 22.8174 7.53101V8.24515C22.8174 10.3227 23.2086 11.4913 25.0992 13.8934L28.6847 18.5029C31.2273 21.8139 32.0096 23.6967 32.0096 27.8517V29.0203C32.0748 34.5387 29.7278 37.7849 24.7732 37.7849Z" fill="white"/>
<path d="M46.5475 0.324585V5.71315H39.3763V15.4515H44.9829V21.0348H39.3763V31.7471H46.8735V37.3953H33.7046V0.324585H46.5475Z" fill="white"/>
<path d="M62.1285 30.4486H58.0214L57.2391 37.3953H52.2192L56.7827 0.324585H63.4975L68.3218 37.3953H62.8456L62.1285 30.4486ZM61.4766 24.9302L59.9771 11.2316L58.5429 24.9302H61.4766Z" fill="white"/>
<path d="M74.8409 37.3953H69.1692V0.324585H78.2961C82.0773 0.324585 83.9679 1.94765 83.9679 6.03776V12.5949C83.9679 15.7112 82.5336 16.8798 81.4906 17.3343C82.7292 17.8536 83.9679 18.8924 83.9679 21.3595V34.344C83.9679 35.8372 84.2938 36.5513 84.4894 37.0707V37.3304H78.8829C78.6221 36.9408 78.3613 36.2916 78.3613 34.279V23.1773C78.3613 21.5542 78.0354 20.8401 76.2752 20.8401H74.8409V37.3953ZM74.8409 15.5814H76.3404C77.905 15.5814 78.3613 14.6075 78.3613 12.9195V7.72574C78.3613 6.10268 78.0354 5.32361 76.3404 5.32361H74.8409V15.5814Z" fill="white"/>
<path d="M95.4418 5.71315V37.3953H89.8352V5.71315H85.0762V0.324585H100.136V5.71315H95.4418Z" fill="white"/>
<path d="M115.391 30.4486H111.284L110.501 37.3953H105.481L110.045 0.324585H116.695L121.519 37.3953H116.043L115.391 30.4486ZM114.739 24.9302L113.239 11.2316L111.805 24.9302H114.739Z" fill="white"/>
<path d="M127.582 0.324585L132.406 20.1909V0.324585H137.556V37.3953H132.993L127.582 16.1007V37.3953H122.432V0.324585H127.582Z" fill="white"/>
<path d="M139.642 0.324585H148.313C153.137 0.324585 154.637 3.05133 154.637 7.46605V29.9941C154.637 34.5387 152.942 37.3953 148.313 37.3953H139.642V0.324585ZM145.314 32.0067H146.683C148.378 32.0067 148.9 31.0978 148.9 29.1502V8.24512C148.9 6.10268 148.378 5.38854 146.944 5.38854H145.314V32.0067Z" fill="white"/>
<path d="M0 38.1744H8.6706C13.4948 38.1744 14.9943 40.9011 14.9943 45.3159V67.8439C14.9943 72.3885 13.2993 75.2451 8.6706 75.2451H0V38.1744ZM5.67175 69.7916H7.04079C8.7358 69.7916 9.25734 68.8827 9.25734 66.935V46.0949C9.25734 43.9525 8.7358 43.2383 7.30156 43.2383H5.67175V69.7916Z" fill="white"/>
<path d="M29.8582 38.1744V43.498H22.6218V53.2364H28.2936V58.8846H22.6218V69.5969H30.1841V75.1802H17.0153V38.1744H29.8582Z" fill="white"/>
<path d="M39.1807 75.5697H38.0724C33.5741 75.5697 31.162 73.1027 31.162 68.5581V61.157H36.7685V67.6492C36.7685 69.3372 37.2901 70.2461 38.5939 70.2461C39.963 70.2461 40.4193 69.3372 40.4193 67.0649V66.2209C40.4193 63.5591 40.1586 62.6502 38.1376 59.9884L34.552 55.3789C32.1399 52.2626 31.4228 49.9254 31.4228 46.2248V45.0562C31.4228 40.1221 33.9001 37.8498 38.3984 37.8498H39.4414C44.0701 37.8498 45.8955 39.8624 45.8955 44.2771V50.3798H40.4193V45.0562C40.4193 43.8227 40.1586 42.8488 38.7895 42.8488C37.4205 42.8488 37.1597 43.6928 37.1597 45.4457V46.0949C37.1597 48.1725 37.5509 49.3411 39.4414 51.7432L43.027 56.3527C45.5695 59.6637 46.3518 61.5465 46.3518 65.7015V66.8701C46.4822 72.3885 44.1353 75.5697 39.1807 75.5697Z" fill="white"/>
<path d="M53.7186 38.1744H48.0469V75.2451H53.7186V38.1744Z" fill="white"/>
<path d="M61.0854 75.6996C57.7606 75.6996 55.6744 72.7781 55.6744 68.9476V45.7703C55.6744 41.6153 57.3042 37.7849 62.65 37.7849H63.7583C69.8212 37.7849 70.5383 41.7451 70.5383 46.0949V49.8604H65.0621V45.7054C65.0621 44.0823 64.671 43.1734 63.2368 43.1734C62.0633 43.1734 61.4766 44.0823 61.4766 45.7054V67.3895C61.4766 69.1424 62.1937 70.0513 63.3019 70.0513C64.7362 70.0513 65.3881 69.0775 65.3881 67.6492V58.3653H62.8456V52.717H70.7339V75.2451H67.5395C67.4743 75.0504 67.0179 73.2325 66.5616 71.6095C66.1704 72.843 64.2798 75.7645 61.4114 75.7645H61.0854V75.6996Z" fill="white"/>
<path d="M77.7747 38.1744L82.599 58.0407V38.1744H87.7492V75.1802H83.1857L77.7747 53.8856V75.1802H72.6897V38.1744H77.7747Z" fill="white"/>
<path d="M102.483 75.5697H101.374C96.876 75.5697 94.4639 73.1027 94.4639 68.5581V61.157H100.07V67.6492C100.07 69.3372 100.592 70.2461 101.896 70.2461C103.265 70.2461 103.721 69.3372 103.721 67.0649V66.2209C103.721 63.5591 103.46 62.6502 101.439 59.9884L97.8539 55.3789C95.4418 52.2626 94.7246 49.9254 94.7246 46.2248V45.0562C94.7246 40.1221 97.202 37.8498 101.7 37.8498H102.743C107.372 37.8498 109.197 39.8624 109.197 44.2771V50.3798H103.721V45.0562C103.721 43.8227 103.46 42.8488 102.091 42.8488C100.722 42.8488 100.462 43.6928 100.462 45.4457V46.0949C100.462 48.1725 100.853 49.3411 102.743 51.7432L106.329 56.3527C108.871 59.6637 109.654 61.5465 109.654 65.7015V66.8701C109.784 72.3885 107.437 75.5697 102.483 75.5697Z" fill="white"/>
<path d="M120.671 67.6492V59.0794H126.213V67.6492C126.213 71.6095 124.909 75.6347 119.433 75.6347H118.194C112.522 75.6347 111.218 71.5445 111.218 67.844V45.2509C111.218 41.4854 112.848 37.8498 117.998 37.8498H119.302C125.496 37.8498 126.213 41.9399 126.213 45.5756V52.1977H120.671V45.7054C120.671 44.0823 120.15 43.2384 118.781 43.2384C117.412 43.2384 117.021 44.0174 117.021 45.7054V67.7141C117.021 69.3372 117.542 70.2461 118.846 70.2461C120.15 70.1812 120.671 69.1424 120.671 67.6492Z" fill="white"/>
<path d="M137.491 58.8846H133.645V75.1802H128.038V38.1744H133.645V52.9767H137.491V38.1744H143.163V75.1802H137.491V58.8846Z" fill="white"/>
<path d="M160.569 66.935C160.569 72.1288 158.809 75.6346 153.398 75.6346H152.42C147.009 75.6346 145.119 72.1288 145.119 66.935V46.2897C145.119 41.1608 147.074 37.7849 152.355 37.7849H153.333C158.809 37.7849 160.569 41.1608 160.569 46.2248V66.935ZM154.832 46.03C154.832 44.0823 154.18 43.1734 152.876 43.1734C151.442 43.1734 150.855 44.1473 150.855 46.03V67.3246C150.855 68.9476 151.312 70.1811 152.876 70.1811C154.376 70.1811 154.767 68.9476 154.767 67.3246V46.03H154.832Z" fill="white"/>
<path d="M177.845 66.935C177.845 72.1288 176.085 75.6346 170.674 75.6346H169.696C164.285 75.6346 162.395 72.1288 162.395 66.935V46.2897C162.395 41.1608 164.35 37.7849 169.631 37.7849H170.609C176.085 37.7849 177.845 41.1608 177.845 46.2248V66.935ZM172.043 46.03C172.043 44.0823 171.391 43.1734 170.087 43.1734C168.653 43.1734 168.066 44.1473 168.066 46.03V67.3246C168.066 68.9476 168.523 70.1811 170.087 70.1811C171.587 70.1811 171.978 68.9476 171.978 67.3246V46.03H172.043Z" fill="white"/>
<path d="M185.407 38.1744V69.467H192.318V75.1802H179.736V38.1744H185.407Z" fill="white"/>
<rect x="126.095" y="75.5002" width="550.851" height="125.141" fill="white"/>
</g>
<defs>
<clipPath id="clip0_60_299">
<rect width="192.318" height="75.6996" fill="white"/>
</clipPath>
</defs>
</svg>
