<svg width="184" height="23" viewBox="0 0 184 23" fill="none" xmlns="http://www.w3.org/2000/svg">
<path d="M7.104 23C5.952 23 4.896 22.712 3.936 22.136C2.976 21.5387 2.208 20.7493 1.632 19.768C1.07733 18.7653 0.8 17.6667 0.8 16.472V7.096C0.8 5.92267 1.07733 4.84533 1.632 3.864C2.208 2.86133 2.976 2.072 3.936 1.496C4.896 0.898665 5.952 0.599998 7.104 0.599998H24.576C24.704 0.599998 24.8107 0.642665 24.896 0.727999C24.9813 0.813332 25.024 0.919999 25.024 1.048V7.544C25.024 7.65067 24.9813 7.75733 24.896 7.864C24.8107 7.94933 24.704 7.992 24.576 7.992H8.864C8.75733 7.992 8.65067 8.03467 8.544 8.12C8.45867 8.20533 8.416 8.312 8.416 8.44V9.048C8.416 9.176 8.45867 9.28267 8.544 9.368C8.65067 9.45333 8.75733 9.496 8.864 9.496H24.608C24.736 9.496 24.8427 9.54933 24.928 9.656C25.0133 9.74133 25.056 9.83733 25.056 9.944V22.552C25.056 22.68 25.0133 22.7867 24.928 22.872C24.8427 22.9573 24.7253 23 24.576 23H7.104ZM17.952 16.824C18.08 16.824 18.1867 16.7813 18.272 16.696C18.3573 16.5893 18.4 16.4827 18.4 16.376V15.608C18.4 15.48 18.3573 15.3733 18.272 15.288C18.1867 15.2027 18.08 15.16 17.952 15.16L8.864 15.128C8.75733 15.128 8.66133 15.1813 8.576 15.288C8.49067 15.3947 8.448 15.5227 8.448 15.672V16.312C8.448 16.44 8.49067 16.5573 8.576 16.664C8.66133 16.7707 8.75733 16.824 8.864 16.824H17.952ZM34.4838 7.288C34.3131 7.288 34.2278 7.36267 34.2278 7.512V8.824C34.2278 8.97333 34.3131 9.048 34.4838 9.048H49.5878C49.7584 9.048 49.8971 9.112 50.0038 9.24C50.1318 9.34667 50.1958 9.48533 50.1958 9.656V14.04C50.1958 14.2107 50.1318 14.36 50.0038 14.488C49.8971 14.5947 49.7584 14.648 49.5878 14.648H34.4838C34.3131 14.648 34.2278 14.7227 34.2278 14.872V16.248C34.2278 16.3973 34.3131 16.472 34.4838 16.472H49.5878C49.7584 16.472 49.8971 16.536 50.0038 16.664C50.1318 16.7707 50.1958 16.9093 50.1958 17.08V22.392C50.1958 22.5627 50.1318 22.712 50.0038 22.84C49.8971 22.9467 49.7584 23 49.5878 23H27.2518C27.0811 23 26.9318 22.9467 26.8038 22.84C26.6971 22.712 26.6438 22.5627 26.6438 22.392V1.208C26.6438 1.03733 26.6971 0.898666 26.8038 0.792C26.9318 0.663999 27.0811 0.599998 27.2518 0.599998H49.5878C49.7584 0.599998 49.8971 0.663999 50.0038 0.792C50.1318 0.898666 50.1958 1.03733 50.1958 1.208V6.68C50.1958 6.85067 50.1318 7 50.0038 7.128C49.8971 7.23467 49.7584 7.288 49.5878 7.288H34.4838ZM65.592 0.919998L69.432 15.256C69.4533 15.32 69.496 15.352 69.56 15.352C69.6453 15.3307 69.688 15.288 69.688 15.224V1.112C69.688 0.962666 69.7307 0.845332 69.816 0.759998C69.9227 0.653332 70.04 0.599998 70.168 0.599998H76.792C76.92 0.599998 77.0267 0.653332 77.112 0.759998C77.2187 0.845332 77.272 0.962666 77.272 1.112V22.552C77.272 22.68 77.2187 22.7867 77.112 22.872C77.0267 22.9573 76.9307 23 76.824 23L63.992 22.968C63.7573 22.968 63.608 22.8613 63.544 22.648L59.704 8.28C59.6827 8.19467 59.6187 8.16267 59.512 8.184C59.4267 8.184 59.384 8.22667 59.384 8.312V22.52C59.384 22.648 59.3413 22.7653 59.256 22.872C59.1707 22.9573 59.0533 23 58.904 23H52.28C52.152 23 52.0347 22.9573 51.928 22.872C51.8427 22.7653 51.8 22.648 51.8 22.52V1.048C51.8 0.941332 51.8427 0.845332 51.928 0.759998C52.0133 0.653332 52.12 0.599998 52.248 0.599998H65.176C65.3893 0.599998 65.528 0.706665 65.592 0.919998ZM86.7025 7.288C86.5318 7.288 86.4465 7.36267 86.4465 7.512V8.824C86.4465 8.97333 86.5318 9.048 86.7025 9.048H101.807C101.977 9.048 102.116 9.112 102.223 9.24C102.351 9.34667 102.415 9.48533 102.415 9.656V14.04C102.415 14.2107 102.351 14.36 102.223 14.488C102.116 14.5947 101.977 14.648 101.807 14.648H86.7025C86.5318 14.648 86.4465 14.7227 86.4465 14.872V16.248C86.4465 16.3973 86.5318 16.472 86.7025 16.472H101.807C101.977 16.472 102.116 16.536 102.223 16.664C102.351 16.7707 102.415 16.9093 102.415 17.08V22.392C102.415 22.5627 102.351 22.712 102.223 22.84C102.116 22.9467 101.977 23 101.807 23H79.4705C79.2998 23 79.1505 22.9467 79.0225 22.84C78.9158 22.712 78.8625 22.5627 78.8625 22.392V1.208C78.8625 1.03733 78.9158 0.898666 79.0225 0.792C79.1505 0.663999 79.2998 0.599998 79.4705 0.599998H101.807C101.977 0.599998 102.116 0.663999 102.223 0.792C102.351 0.898666 102.415 1.03733 102.415 1.208V6.68C102.415 6.85067 102.351 7 102.223 7.128C102.116 7.23467 101.977 7.288 101.807 7.288H86.7025ZM105.171 23C104.915 23 104.723 22.8827 104.595 22.648C104.552 22.584 104.531 22.4773 104.531 22.328V17.208C104.531 17.016 104.595 16.8453 104.723 16.696C104.872 16.5467 105.053 16.472 105.267 16.472H121.427C121.768 16.472 122.024 16.3973 122.195 16.248C122.365 16.0987 122.451 15.9067 122.451 15.672C122.451 15.4373 122.355 15.2453 122.163 15.096C121.992 14.9253 121.747 14.84 121.427 14.84L111.699 14.776C110.312 14.7547 109.032 14.4773 107.859 13.944C106.707 13.4107 105.779 12.6 105.075 11.512C104.371 10.424 104.019 9.112 104.019 7.576C104.019 5.208 104.744 3.45867 106.195 2.328C107.645 1.176 109.48 0.599998 111.699 0.599998H129.331C129.459 0.599998 129.565 0.653332 129.651 0.759998C129.736 0.866665 129.779 0.994665 129.779 1.144V6.712C129.779 6.86133 129.736 6.98933 129.651 7.096C129.565 7.20267 129.459 7.256 129.331 7.256H112.915C112.573 7.256 112.317 7.33067 112.147 7.48C111.976 7.62933 111.891 7.82133 111.891 8.056C111.891 8.29067 111.976 8.49333 112.147 8.664C112.339 8.81333 112.595 8.888 112.915 8.888L123.091 8.92C125.224 8.92 126.963 9.528 128.307 10.744C129.651 11.9387 130.323 13.688 130.323 15.992C130.323 17.3147 130.003 18.5093 129.363 19.576C128.744 20.6427 127.88 21.4853 126.771 22.104C125.683 22.7013 124.456 23 123.091 23H105.171ZM132.341 23C132.213 23 132.117 22.9467 132.053 22.84C131.968 22.7547 131.925 22.6373 131.925 22.488V16.536C131.925 16.3867 131.968 16.2693 132.053 16.184C132.117 16.0773 132.213 16.024 132.341 16.024H139.541C139.69 16.024 139.808 15.9813 139.893 15.896C139.978 15.8107 140.021 15.704 140.021 15.576V8.024C140.021 7.896 139.978 7.78933 139.893 7.704C139.808 7.61867 139.69 7.576 139.541 7.576H132.341C132.213 7.576 132.117 7.53333 132.053 7.448C131.968 7.36267 131.925 7.24533 131.925 7.096V1.112C131.925 0.962666 131.968 0.845332 132.053 0.759998C132.117 0.653332 132.213 0.599998 132.341 0.599998H155.253C155.36 0.599998 155.466 0.653332 155.573 0.759998C155.658 0.887999 155.701 1.00533 155.701 1.112V7.096C155.701 7.20267 155.658 7.32 155.573 7.448C155.488 7.53333 155.381 7.576 155.253 7.576H148.053C147.946 7.576 147.84 7.62933 147.733 7.736C147.648 7.82133 147.605 7.91733 147.605 8.024V15.576C147.605 15.704 147.648 15.8107 147.733 15.896C147.84 15.9813 147.946 16.024 148.053 16.024H155.253C155.36 16.024 155.466 16.0773 155.573 16.184C155.658 16.312 155.701 16.4293 155.701 16.536V22.488C155.701 22.5947 155.658 22.712 155.573 22.84C155.466 22.9467 155.36 23 155.253 23H132.341ZM158.452 23C158.196 23 158.004 22.8827 157.876 22.648C157.833 22.584 157.812 22.4773 157.812 22.328V17.208C157.812 17.016 157.876 16.8453 158.004 16.696C158.153 16.5467 158.335 16.472 158.548 16.472H174.708C175.049 16.472 175.305 16.3973 175.476 16.248C175.647 16.0987 175.732 15.9067 175.732 15.672C175.732 15.4373 175.636 15.2453 175.444 15.096C175.273 14.9253 175.028 14.84 174.708 14.84L164.98 14.776C163.593 14.7547 162.313 14.4773 161.14 13.944C159.988 13.4107 159.06 12.6 158.356 11.512C157.652 10.424 157.3 9.112 157.3 7.576C157.3 5.208 158.025 3.45867 159.476 2.328C160.927 1.176 162.761 0.599998 164.98 0.599998H182.612C182.74 0.599998 182.847 0.653332 182.932 0.759998C183.017 0.866665 183.06 0.994665 183.06 1.144V6.712C183.06 6.86133 183.017 6.98933 182.932 7.096C182.847 7.20267 182.74 7.256 182.612 7.256H166.196C165.855 7.256 165.599 7.33067 165.428 7.48C165.257 7.62933 165.172 7.82133 165.172 8.056C165.172 8.29067 165.257 8.49333 165.428 8.664C165.62 8.81333 165.876 8.888 166.196 8.888L176.372 8.92C178.505 8.92 180.244 9.528 181.588 10.744C182.932 11.9387 183.604 13.688 183.604 15.992C183.604 17.3147 183.284 18.5093 182.644 19.576C182.025 20.6427 181.161 21.4853 180.052 22.104C178.964 22.7013 177.737 23 176.372 23H158.452Z" fill="white"/>
</svg>
