<svg width="750" height="750" viewBox="0 0 750 750" fill="none" xmlns="http://www.w3.org/2000/svg">
<path d="M673.824 384.164C673.877 383.441 674 382.637 674.193 381.752L678.981 382.104C678.862 382.566 678.79 382.967 678.765 383.307C678.74 383.648 678.719 383.925 678.704 384.137C678.619 385.286 678.923 386.4 679.614 387.478C680.305 388.555 681.432 389.515 682.997 390.357L683.68 390.664L718.551 376.409L719.828 376.503L719.486 381.163L688.869 393.42L717.494 408.295L717.17 412.7L715.894 412.606L680.855 394.179C679.412 393.432 678.208 392.637 677.243 391.796C676.317 391.001 675.586 390.177 675.049 389.325C674.51 388.515 674.165 387.676 674.015 386.81C673.822 385.94 673.758 385.058 673.824 384.164Z" fill="white"/>
<path d="M671.058 419.292C671.128 418.958 671.202 418.711 671.279 418.553C671.305 418.427 671.348 418.327 671.408 418.252L676.048 419.23C675.971 419.388 675.919 419.53 675.893 419.656C675.866 419.781 675.844 419.886 675.827 419.969C675.704 420.554 675.773 421.158 676.035 421.781C676.33 422.455 676.976 423.115 677.975 423.762C679.007 424.459 680.5 425.145 682.454 425.819C684.399 426.534 686.981 427.231 690.2 427.909L698.101 429.573L694.167 448.26L666.575 442.448L667.526 437.933L691.041 442.887L693.114 433.041L687.032 431.76C683.562 431.029 680.725 430.192 678.523 429.247C676.354 428.354 674.663 427.365 673.45 426.28C672.28 425.204 671.512 424.081 671.147 422.913C670.823 421.753 670.794 420.546 671.058 419.292Z" fill="white"/>
<path d="M690.703 467.248L689.177 471.612L670.447 465.061L683.539 487.737L682.67 490.222L655.999 480.893L657.525 476.528L676.437 483.144L663.227 460.222L664.032 457.919L690.703 467.248Z" fill="white"/>
<path d="M639.029 517.899L649.947 496.641L675.157 509.593L673.038 513.718L651.552 502.68L645.343 514.77L666.829 525.809L664.71 529.934L643.224 518.896L640.841 523.537L630.814 518.386L632.727 514.661L639.029 517.899Z" fill="white"/>
<path d="M623.784 542.003C624.828 540.523 626.098 539.283 627.595 538.281C629.128 537.305 630.765 536.666 632.507 536.365C634.284 536.089 636.136 536.156 638.062 536.565C639.999 537.035 641.901 537.928 643.768 539.245C645.599 540.537 647.056 541.987 648.138 543.594C649.23 545.262 649.927 546.966 650.228 548.708C650.564 550.476 650.53 552.245 650.125 554.016C649.719 555.788 648.97 557.448 647.877 558.998C646.312 561.218 644.545 562.714 642.575 563.488C640.616 564.321 638.882 564.575 637.371 564.248L641.493 567.155L638.959 570.748L615.711 554.349L618.245 550.755L622.578 553.812C621.676 552.173 621.289 550.291 621.416 548.166C621.579 546.065 622.368 544.01 623.784 542.003ZM627.064 544.87C626.169 546.138 625.603 547.427 625.366 548.736C625.163 550.07 625.226 551.328 625.554 552.509C625.892 553.749 626.43 554.894 627.168 555.942C627.941 557.015 628.838 557.911 629.859 558.632L630.705 559.228C631.751 559.914 632.856 560.403 634.021 560.697C635.22 561.016 636.408 561.089 637.584 560.916C638.771 560.804 639.911 560.421 641.005 559.768C642.133 559.14 643.132 558.21 644.002 556.977C644.797 555.85 645.336 554.674 645.619 553.449C645.913 552.285 645.938 551.089 645.695 549.863C645.488 548.661 644.992 547.494 644.209 546.361C643.425 545.228 642.364 544.19 641.026 543.246C638.455 541.432 635.88 540.67 633.301 540.961C630.757 541.277 628.678 542.58 627.064 544.87Z" fill="white"/>
<path d="M620.149 621.367L617.825 623.36L583.159 605.556L595.778 642.279L593.455 644.272L558.578 614.117L562.138 611.063L588.519 633.916L576.36 598.43L577.299 597.624L610.333 614.426L591.55 585.825L595.159 582.728L620.149 621.367Z" fill="white"/>
<path d="M530.981 631.929C532.566 631.008 534.259 630.403 536.059 630.114C537.882 629.863 539.658 629.967 541.389 630.425C543.141 630.922 544.817 631.766 546.417 632.956C548.001 634.206 549.374 635.832 550.536 637.832C551.676 639.795 552.404 641.745 552.721 643.681C553.022 645.677 552.943 647.54 552.484 649.27C552.047 651.038 551.268 652.652 550.147 654.111C549.025 655.57 547.635 656.782 545.974 657.747C543.596 659.128 541.338 659.759 539.198 659.639C537.043 659.578 535.34 659.079 534.088 658.14L536.653 662.556L532.803 664.793L518.336 639.881L522.186 637.644L524.882 642.287C524.744 640.398 525.183 638.503 526.198 636.601C527.235 634.736 528.829 633.179 530.981 631.929ZM532.787 635.953C531.429 636.742 530.363 637.689 529.591 638.794C528.842 639.936 528.368 641.12 528.171 642.345C527.958 643.63 527.97 644.91 528.206 646.186C528.464 647.5 528.911 648.704 529.547 649.799L530.073 650.705C530.747 651.777 531.557 652.695 532.504 653.457C533.474 654.257 534.536 654.826 535.691 655.164C536.831 655.562 538.042 655.692 539.324 655.553C540.628 655.451 541.94 655.017 543.261 654.249C544.469 653.548 545.462 652.693 546.24 651.686C547.002 650.739 547.53 649.649 547.825 648.418C548.141 647.225 548.178 645.941 547.936 644.568C547.693 643.194 547.156 641.79 546.323 640.356C544.722 637.6 542.674 635.812 540.178 634.99C537.704 634.207 535.24 634.527 532.787 635.953Z" fill="white"/>
<path d="M506.188 646.095C506.511 645.961 506.762 645.881 506.941 645.854C507.062 645.804 507.172 645.782 507.269 645.789L509.129 650.28C508.95 650.306 508.8 650.345 508.679 650.395C508.558 650.445 508.457 650.487 508.376 650.521C507.809 650.755 507.339 651.164 506.964 651.746C506.565 652.385 506.381 653.314 506.412 654.533C506.419 655.81 506.704 657.47 507.265 659.512C507.786 661.571 508.691 664.158 509.981 667.273L513.147 674.919L495.065 682.41L484.009 655.71L488.378 653.9L497.801 676.656L507.327 672.709L504.89 666.823C503.499 663.465 502.566 660.582 502.09 658.172C501.589 655.82 501.447 653.818 501.663 652.164C501.896 650.551 502.4 649.252 503.177 648.267C503.971 647.322 504.974 646.598 506.188 646.095Z" fill="white"/>
<path d="M458.359 663.787C460.14 663.311 461.942 663.171 463.766 663.365C465.601 663.602 467.297 664.171 468.855 665.073C470.424 666.017 471.828 667.277 473.067 668.855C474.274 670.486 475.178 672.425 475.778 674.672C476.366 676.877 476.559 678.961 476.356 680.923C476.121 682.939 475.553 684.726 474.652 686.284C473.762 687.884 472.58 689.245 471.108 690.365C469.635 691.485 467.966 692.294 466.1 692.792C463.428 693.505 461.071 693.521 459.026 692.84C456.951 692.213 455.43 691.279 454.463 690.039L455.787 695L451.462 696.155L443.993 668.167L448.318 667.013L449.71 672.228C450.074 670.36 451 668.636 452.486 667.058C453.985 665.522 455.942 664.432 458.359 663.787ZM459.051 668.167C457.525 668.575 456.241 669.213 455.201 670.081C454.172 670.992 453.401 672.015 452.886 673.152C452.341 674.342 452.015 675.588 451.907 676.888C451.812 678.231 451.928 679.518 452.256 680.748L452.528 681.765C452.898 682.984 453.443 684.088 454.161 685.077C454.89 686.109 455.771 686.941 456.803 687.574C457.804 688.261 458.945 688.706 460.226 688.909C461.518 689.154 462.906 689.079 464.39 688.683C465.747 688.321 466.936 687.753 467.956 686.981C468.945 686.263 469.745 685.345 470.356 684.228C470.977 683.154 471.352 681.918 471.479 680.522C471.606 679.125 471.454 677.621 471.024 676.009C470.198 672.914 468.682 670.638 466.477 669.183C464.283 667.77 461.807 667.431 459.051 668.167Z" fill="white"/>
<path d="M430.46 673.023L423.834 684.107C426.081 684.351 427.861 685.099 429.173 686.349C430.441 687.605 431.234 689.475 431.552 691.96C431.953 695.099 431.27 697.557 429.503 699.334C427.742 701.155 424.747 702.335 420.517 702.876L409.857 704.239L406.179 675.464L410.888 674.861L412.192 685.064L418.666 684.236L425.21 673.03L430.377 672.369L430.46 673.023ZM412.694 688.988L414.023 699.386L419.974 698.625C421.151 698.475 422.211 698.273 423.154 698.019C424.058 697.815 424.812 697.475 425.416 696.999C425.982 696.572 426.394 695.987 426.654 695.245C426.914 694.503 426.971 693.565 426.826 692.432C426.57 690.426 425.849 689.122 424.665 688.52C423.442 687.968 421.61 687.848 419.168 688.16L412.694 688.988Z" fill="white"/>
<path d="M364.411 723.651L331.251 720.573L335.516 674.608L340.376 675.059L336.537 716.427L359.979 718.603L363.818 677.235L368.677 677.686L364.411 723.651Z" fill="white"/>
<path d="M307.713 698.465L303.124 697.277L308.22 677.581L286.169 692.888L283.556 692.212L290.813 664.165L295.402 665.353L290.256 685.241L312.548 669.792L314.97 670.419L307.713 698.465Z" fill="white"/>
<path d="M264.089 654.344C266.031 655.148 267.688 656.237 269.062 657.612C270.419 659.028 271.465 660.622 272.2 662.396C272.894 664.152 273.233 666.023 273.217 668.007C273.201 669.991 272.783 671.974 271.962 673.956C271.158 675.898 270.069 677.556 268.694 678.929C267.303 680.344 265.749 681.406 264.033 682.117C262.3 682.868 260.462 683.244 258.519 683.245C256.535 683.229 254.572 682.819 252.63 682.014C250.689 681.21 249.031 680.12 247.657 678.746C246.283 677.371 245.241 675.825 244.53 674.109C243.819 672.393 243.471 670.542 243.487 668.558C243.487 666.615 243.897 664.652 244.717 662.67C245.538 660.687 246.644 658.989 248.036 657.575C249.427 656.161 250.989 655.078 252.722 654.327C254.455 653.575 256.301 653.179 258.261 653.138C260.205 653.137 262.147 653.539 264.089 654.344ZM262.456 658.288C261.08 657.718 259.726 657.441 258.392 657.458C257.058 657.474 255.803 657.759 254.625 658.314C253.447 658.869 252.385 659.661 251.437 660.69C250.473 661.76 249.689 663.023 249.086 664.48C248.483 665.936 248.161 667.343 248.12 668.7C248.063 670.098 248.263 671.39 248.72 672.574C249.16 673.8 249.855 674.869 250.803 675.783C251.735 676.738 252.888 677.5 254.264 678.07C255.639 678.64 256.994 678.917 258.327 678.9C259.644 678.925 260.912 678.668 262.13 678.13C263.291 677.615 264.345 676.843 265.292 675.814C266.223 674.825 266.99 673.603 267.593 672.146C268.196 670.69 268.535 669.242 268.609 667.804C268.667 666.406 268.475 665.095 268.035 663.869C267.554 662.627 266.848 661.529 265.916 660.574C264.984 659.62 263.831 658.858 262.456 658.288Z" fill="white"/>
<path d="M212.729 644.127L225.973 651.952L232.698 640.567L236.755 642.965L222.108 667.765L218.05 665.367L223.809 655.616L210.565 647.791L204.806 657.542L200.748 655.144L215.396 630.344L219.453 632.742L212.729 644.127Z" fill="white"/>
<path d="M192.07 613.423C193.741 614.744 195.077 616.244 196.078 617.922C197.045 619.574 197.666 621.312 197.941 623.137C198.155 624.969 198.003 626.844 197.485 628.762C196.932 630.653 195.941 632.502 194.512 634.31C193.029 636.186 191.415 637.597 189.669 638.544C187.861 639.499 186.038 640.052 184.199 640.205C182.326 640.332 180.505 640.111 178.737 639.544C176.934 638.95 175.283 638.059 173.782 636.873C172.043 635.498 170.765 633.96 169.947 632.26C169.068 630.568 168.586 628.828 168.501 627.043C168.416 625.258 168.661 623.511 169.235 621.803C169.809 620.096 170.635 618.56 171.714 617.195L172.725 615.916L191.396 630.681C192.237 629.407 192.813 628.117 193.125 626.811C193.41 625.54 193.463 624.28 193.287 623.031C193.049 621.79 192.587 620.621 191.902 619.525C191.217 618.429 190.328 617.449 189.237 616.586C187.805 615.454 186.259 614.675 184.6 614.249C182.88 613.831 181.254 613.82 179.722 614.216L179.057 610.115C181.307 609.511 183.585 609.539 185.891 610.198C188.135 610.865 190.195 611.939 192.07 613.423ZM176.769 633.831C178.576 635.26 180.546 635.958 182.678 635.926C184.809 635.893 186.808 635.118 188.673 633.6L174.094 622.071C173.06 624.08 172.794 626.17 173.295 628.34C173.735 630.517 174.893 632.347 176.769 633.831Z" fill="white"/>
<path d="M181.927 584.62L150.029 615.163L146.975 611.972L150.634 608.469C149.183 609.019 147.437 609.042 145.396 608.538C143.325 608.064 141.331 606.827 139.415 604.825C138.097 603.448 137.105 601.911 136.438 600.212C135.771 598.513 135.472 596.761 135.542 594.955C135.581 593.18 136.033 591.398 136.899 589.61C137.703 587.821 138.919 586.147 140.545 584.59C142.202 583.003 143.973 581.847 145.856 581.123C147.679 580.397 149.493 580.038 151.3 580.047C153.075 580.086 154.796 580.476 156.464 581.216C158.101 581.987 159.548 583.029 160.805 584.343C162.422 586.032 163.484 587.862 163.993 589.833C164.501 591.804 164.491 593.642 163.964 595.345L178.694 581.242L181.927 584.62ZM142.962 602.238C144.01 603.332 145.141 604.107 146.356 604.563C147.539 605.048 148.744 605.273 149.97 605.239C151.164 605.234 152.333 604.984 153.477 604.488C154.559 603.991 155.569 603.324 156.506 602.487L157.256 601.768C158.163 600.9 158.92 599.875 159.528 598.694C160.104 597.543 160.483 596.341 160.663 595.09C160.782 593.836 160.641 592.562 160.241 591.267C159.809 590.002 159.055 588.807 157.977 587.681C156.031 585.648 153.771 584.664 151.198 584.731C148.593 584.827 146.149 585.968 143.866 588.154C142.678 589.292 141.779 590.482 141.17 591.724C140.561 592.967 140.243 594.2 140.217 595.425C140.159 596.679 140.378 597.878 140.873 599.022C141.337 600.196 142.034 601.268 142.962 602.238Z" fill="white"/>
<path d="M134.025 552.928C135.369 554.776 136.277 556.649 136.75 558.545C137.188 560.466 137.246 562.343 136.926 564.176C136.581 565.974 135.879 567.685 134.82 569.308C133.761 570.932 132.378 572.365 130.669 573.608C128.821 574.953 126.936 575.844 125.015 576.282C123.094 576.72 121.247 576.784 119.475 576.473C117.677 576.128 115.997 575.43 114.434 574.381C112.811 573.322 111.39 571.956 110.173 570.282C108.879 568.503 107.971 566.631 107.448 564.665C106.924 562.699 106.823 560.8 107.143 558.967L111.67 559.033C111.321 560.46 111.304 561.939 111.618 563.471C111.932 565.002 112.571 566.43 113.535 567.756C114.346 568.872 115.312 569.796 116.431 570.528C117.525 571.226 118.717 571.692 120.007 571.926C121.237 572.151 122.54 572.11 123.916 571.802C125.232 571.485 126.552 570.844 127.877 569.88C129.167 568.941 130.201 567.869 130.977 566.664C131.719 565.485 132.195 564.232 132.404 562.907C132.613 561.581 132.559 560.261 132.242 558.945C131.899 557.594 131.284 556.308 130.397 555.088C129.357 553.658 128.169 552.575 126.835 551.84C125.465 551.13 124.091 550.743 122.712 550.68L123.353 546.613C125.214 546.752 127.086 547.31 128.969 548.287C130.818 549.288 132.503 550.836 134.025 552.928Z" fill="white"/>
<path d="M94.7435 546.905L92.4868 542.849L102.289 537.394L100.753 534.633L86.3435 531.807L83.9301 527.469L84.4934 527.155L100.575 530.6L106.899 511.734L107.463 511.42L110.064 516.096L104.408 533.115L105.725 535.481L117.273 529.054L119.53 533.11L94.7435 546.905Z" fill="white"/>
<path d="M98.7464 491.264C99.41 492.937 99.7512 494.668 99.7699 496.458C99.7489 498.265 99.39 499.974 98.6932 501.588C97.9566 503.217 96.8941 504.722 95.5058 506.102C94.0619 507.459 92.2846 508.556 90.1738 509.394C88.1029 510.216 86.1047 510.64 84.1792 510.666C82.1981 510.669 80.401 510.322 78.7879 509.625C77.135 508.944 75.6818 507.954 74.4285 506.653C73.1751 505.353 72.2008 503.826 71.5057 502.074C70.5103 499.565 70.2264 497.28 70.654 495.221C71.0259 493.137 71.7584 491.556 72.8514 490.476L68.1918 492.326L66.5803 488.263L92.8653 477.832L94.4768 481.895L89.5782 483.839C91.4316 483.979 93.2078 484.68 94.9068 485.942C96.566 487.22 97.8459 488.994 98.7464 491.264ZM94.5781 492.434C94.0093 491 93.2449 489.828 92.2848 488.919C91.2848 488.025 90.2046 487.393 89.0441 487.024C87.8279 486.631 86.5832 486.456 85.3101 486.5C83.9972 486.56 82.7633 486.82 81.6083 487.278L80.6525 487.657C79.5134 488.155 78.505 488.809 77.6276 489.618C76.7103 490.443 76.0034 491.392 75.5071 492.465C74.9551 493.514 74.6535 494.671 74.6022 495.936C74.511 497.217 74.7419 498.554 75.2949 499.948C75.8004 501.222 76.4855 502.31 77.3502 503.212C78.1592 504.089 79.1399 504.76 80.2922 505.225C81.4047 505.706 82.6452 505.928 84.0138 505.892C85.3824 505.856 86.8233 505.537 88.3367 504.937C91.244 503.783 93.2777 502.054 94.4379 499.75C95.5583 497.461 95.605 495.023 94.5781 492.434Z" fill="white"/>
<path d="M87.1525 464.223L75.7087 459.056C75.7225 461.253 75.1985 463.056 74.1366 464.462C73.0646 465.827 71.3458 466.802 68.9804 467.385C65.9925 468.123 63.5421 467.737 61.6291 466.227C59.6745 464.729 58.2009 461.966 57.2081 457.941L54.7056 447.794L82.0945 441.037L83.1999 445.519L73.4893 447.915L75.0092 454.077L86.5621 459.151L87.775 464.069L87.1525 464.223ZM69.7545 448.836L59.8571 451.278L61.2542 456.943C61.5305 458.063 61.8435 459.065 62.1932 459.947C62.4911 460.798 62.9036 461.489 63.4306 462.019C63.9059 462.518 64.5165 462.852 65.2623 463.02C66.0082 463.188 66.9206 463.139 67.9995 462.873C69.9084 462.402 71.0877 461.56 71.5373 460.349C71.9352 459.106 71.8475 457.323 71.2744 454.999L69.7545 448.836Z" fill="white"/>
<path d="M37.8637 400.019L41.5752 408.191L36.7838 408.487L30.9992 395.826L76.358 393.022L76.6423 397.622L37.8637 400.019Z" fill="white"/>
<path d="M74.5145 374.58L58.0686 359.323C56.3355 357.713 54.7971 356.393 53.4535 355.364C52.0701 354.289 50.8203 353.459 49.7042 352.872C48.5483 352.24 47.4663 351.784 46.4584 351.504C45.4078 351.222 44.3077 351.042 43.1581 350.967C40.6032 350.799 38.6821 351.4 37.3948 352.769C36.0649 354.136 35.3231 355.99 35.1693 358.332C34.9232 362.079 36.4268 365.556 39.6801 368.764L36.8727 371.466C36.1 370.859 35.3371 370.103 34.584 369.198C33.8337 368.251 33.1755 367.203 32.6095 366.054C32.0463 364.862 31.6178 363.573 31.3241 362.185C30.9905 360.752 30.8769 359.226 30.9831 357.608C31.1118 355.649 31.5231 353.944 32.2171 352.493C32.8685 351.039 33.7387 349.835 34.8278 348.88C35.8742 347.922 37.0955 347.233 38.4917 346.811C39.8878 346.39 41.3736 346.231 42.9491 346.335C44.2691 346.421 45.5807 346.636 46.8839 346.978C48.1473 347.275 49.4408 347.766 50.7642 348.452C52.0904 349.095 53.4865 349.978 54.9522 351.1C56.4208 352.18 58.0217 353.526 59.7548 355.136L71.5385 366.174L72.7758 347.332L76.9274 347.604L75.1533 374.622L74.5145 374.58Z" fill="white"/>
<path d="M98.2841 306.936L97.1787 311.418L38.666 296.981L39.7714 292.499L98.2841 306.936Z" fill="white"/>
<path d="M73.5855 254.548L69.979 263.076L66.1297 261.447L75.1458 240.127L78.9951 241.755L75.3887 250.283L97.5963 259.678L95.7931 263.942L73.5855 254.548Z" fill="white"/>
<path d="M112.784 229.359C111.733 231.185 110.459 232.708 108.962 233.93C107.486 235.114 105.875 235.973 104.13 236.505C102.368 236.979 100.512 237.101 98.561 236.87C96.6315 236.602 94.6794 235.9 92.7048 234.762C90.6557 233.582 89.0418 232.205 87.8632 230.633C86.6688 229.003 85.864 227.298 85.4486 225.521C85.0548 223.706 85.0075 221.893 85.3069 220.08C85.6277 218.231 86.2601 216.486 87.2041 214.847C88.2984 212.947 89.6178 211.474 91.1625 210.428C92.6913 209.324 94.3228 208.602 96.0571 208.261C97.7914 207.92 99.5352 207.908 101.289 208.223C103.042 208.538 104.664 209.125 106.154 209.984L107.551 210.789L95.8044 231.189C97.1727 231.828 98.518 232.206 99.8401 232.323C101.125 232.418 102.365 232.289 103.561 231.935C104.741 231.523 105.817 230.903 106.791 230.074C107.764 229.246 108.594 228.235 109.281 227.043C110.182 225.478 110.72 223.853 110.897 222.168C111.057 220.425 110.833 218.832 110.225 217.39L114.14 216.147C115.056 218.262 115.358 220.496 115.046 222.847C114.718 225.139 113.964 227.31 112.784 229.359ZM90.6114 217.331C89.4743 219.305 89.0755 221.333 89.4152 223.415C89.7548 225.496 90.8019 227.339 92.5563 228.945L101.728 213.017C99.6138 212.295 97.5313 212.336 95.4808 213.139C93.4146 213.884 91.7915 215.281 90.6114 217.331Z" fill="white"/>
<path d="M124.458 208.874C124.25 209.149 124.076 209.343 123.938 209.455C123.86 209.558 123.778 209.631 123.691 209.674L119.871 206.786C120.009 206.674 120.117 206.567 120.195 206.463C120.273 206.36 120.338 206.274 120.39 206.205C120.755 205.723 120.951 205.141 120.979 204.46C120.999 203.718 120.692 202.836 120.057 201.816C119.414 200.734 118.344 199.466 116.848 198.011C115.378 196.521 113.317 194.775 110.667 192.771L104.162 187.854L115.788 172.466L138.506 189.637L135.697 193.355L116.335 178.721L110.21 186.828L115.218 190.613C118.075 192.773 120.307 194.757 121.914 196.567C123.512 198.316 124.632 199.947 125.274 201.459C125.881 202.946 126.101 204.302 125.932 205.527C125.73 206.725 125.238 207.841 124.458 208.874Z" fill="white"/>
<path d="M151.599 175.058C150.842 175.89 150.005 176.328 149.089 176.371C148.169 176.353 147.357 176.024 146.653 175.383C145.917 174.714 145.497 173.922 145.393 173.008C145.288 172.094 145.629 171.205 146.415 170.341C147.201 169.477 148.054 169.054 148.973 169.071C149.922 169.057 150.764 169.385 151.5 170.055C152.204 170.695 152.594 171.488 152.669 172.434C152.713 173.351 152.356 174.226 151.599 175.058ZM134.847 159.815C134.09 160.647 133.253 161.085 132.337 161.129C131.417 161.111 130.606 160.782 129.902 160.141C129.166 159.471 128.745 158.679 128.641 157.766C128.536 156.852 128.877 155.963 129.663 155.098C130.449 154.234 131.302 153.811 132.221 153.829C133.17 153.815 134.012 154.142 134.748 154.812C135.452 155.453 135.842 156.246 135.917 157.192C135.961 158.109 135.604 158.983 134.847 159.815Z" fill="white"/>
<path d="M165.561 109.385L172.662 118.573L181.848 111.47L184.441 114.825L175.255 121.928L182.316 131.064L178.962 133.657L171.901 124.521L162.766 131.584L160.173 128.229L169.308 121.166L162.207 111.979L165.561 109.385Z" fill="white"/>
<path d="M209.197 74.8877L191.188 85.0853L188.93 81.0957L212.124 67.9615L212.77 69.1014L221.144 115.538L216.87 117.958L209.197 74.8877Z" fill="white"/>
<path d="M242.278 53.2105C244.235 52.4423 246.19 52.0279 248.143 51.9674C250.136 51.8909 252.017 52.1878 253.786 52.8582C255.554 53.5286 257.178 54.6088 258.657 56.0989C260.135 57.589 261.331 59.4961 262.243 61.8204C263.442 64.8786 263.926 68.0298 263.693 71.274C263.501 74.5021 262.937 78.041 262 81.8907L258.487 96.6808L253.472 98.6493L253.28 98.16L259.23 74.6492C258.456 76.0352 257.468 77.2937 256.265 78.4247C255.086 79.499 253.641 80.3722 251.928 81.0443C250.257 81.7005 248.514 82.0552 246.699 82.1085C244.91 82.105 243.18 81.7725 241.509 81.1109C239.821 80.4085 238.283 79.3654 236.893 77.9817C235.487 76.5571 234.344 74.7235 233.464 72.4808C232.552 70.1565 232.148 67.9861 232.25 65.9694C232.353 63.9527 232.841 62.1378 233.714 60.5247C234.611 58.8548 235.804 57.3984 237.293 56.1553C238.781 54.9123 240.443 53.9307 242.278 53.2105ZM243.899 57.1622C242.594 57.6743 241.418 58.3947 240.371 59.3234C239.349 60.1953 238.549 61.215 237.972 62.3826C237.395 63.5503 237.081 64.8497 237.031 66.2811C236.965 67.6717 237.244 69.1621 237.868 70.7524C238.492 72.3426 239.288 73.6534 240.258 74.6846C241.268 75.6999 242.389 76.4596 243.622 76.9638C244.855 77.468 246.151 77.7123 247.509 77.6968C248.909 77.6652 250.301 77.3773 251.688 76.8332C253.033 76.305 254.217 75.605 255.24 74.7331C256.287 73.8045 257.099 72.7563 257.676 71.5887C258.253 70.4211 258.546 69.1296 258.556 67.7143C258.606 66.2829 258.327 64.7925 257.719 63.243C257.095 61.6527 256.278 60.35 255.268 59.3347C254.242 58.2787 253.12 57.519 251.903 57.0556C250.67 56.5513 249.354 56.315 247.955 56.3466C246.597 56.3622 245.245 56.6341 243.899 57.1622Z" fill="white"/>
<path d="M291.214 37.0018C293.27 36.536 295.269 36.4204 297.214 36.6552C299.201 36.8803 301.02 37.4585 302.672 38.3899C304.324 39.3213 305.77 40.637 307.011 42.337C308.251 44.037 309.148 46.1075 309.701 48.5487C310.429 51.7607 310.432 54.9567 309.712 58.1367C309.034 61.3069 307.941 64.729 306.432 68.4029L300.717 82.5303L295.45 83.724L295.333 83.2101L304.779 60.808C303.803 62.0647 302.633 63.1628 301.27 64.102C299.94 64.9888 298.376 65.636 296.577 66.0436C294.821 66.4415 293.04 66.5299 291.234 66.3089C289.461 66.0353 287.797 65.4445 286.24 64.5365C284.674 63.5857 283.307 62.3197 282.138 60.7385C280.96 59.1144 280.104 57.1247 279.57 54.7692C279.017 52.3281 278.944 50.1159 279.35 48.1328C279.756 46.1497 280.514 44.4246 281.622 42.9577C282.764 41.4383 284.166 40.175 285.829 39.1678C287.492 38.1606 289.287 37.4386 291.214 37.0018ZM292.224 41.1629C290.854 41.4735 289.579 42.0099 288.401 42.7722C287.256 43.4819 286.31 44.3718 285.562 45.4418C284.814 46.5119 284.307 47.7524 284.041 49.1634C283.766 50.5316 283.817 52.0508 284.195 53.721C284.574 55.3913 285.165 56.8105 285.97 57.9789C286.818 59.1375 287.815 60.0598 288.961 60.7456C290.107 61.4315 291.354 61.8692 292.703 62.0588C294.094 62.2388 295.518 62.1637 296.974 61.8338C298.388 61.5135 299.667 60.9985 300.812 60.2887C301.99 59.5265 302.953 58.6103 303.701 57.5403C304.449 56.4702 304.935 55.2345 305.157 53.8333C305.423 52.4223 305.372 50.9031 305.003 49.2757C304.625 47.6054 304.011 46.191 303.164 45.0323C302.306 43.8309 301.309 42.9086 300.173 42.2656C299.027 41.5798 297.758 41.1469 296.367 40.9669C295.018 40.7773 293.637 40.8426 292.224 41.1629Z" fill="white"/>
<path d="M339.033 34.2219L330.735 38.3037L330.278 33.3789L343.133 27.0196L347.459 73.6411L342.731 74.08L339.033 34.2219Z" fill="white"/>
<path d="M385.672 30.9998L364.834 30.517L364.941 25.9009L391.78 26.5227L391.749 27.8416L375.016 72.3199L370.07 72.2053L385.672 30.9998Z" fill="white"/>
<path d="M420.375 76.1455C418.295 75.7979 416.377 75.1434 414.622 74.1819C412.911 73.2277 411.466 72.0063 410.29 70.5178C409.113 69.0292 408.272 67.2626 407.767 65.2181C407.262 63.1736 407.215 60.9161 407.628 58.4458C408.171 55.1953 409.357 52.2304 411.185 49.5511C413.057 46.879 415.387 44.1277 418.177 41.2971L428.821 30.3789L434.152 31.2696L434.065 31.7896L416.82 49.0224C418.2 48.2283 419.677 47.651 421.252 47.2904C422.87 46.9371 424.589 46.9125 426.41 47.2166C428.187 47.5135 429.844 48.1246 431.383 49.0498C432.971 49.939 434.311 51.1206 435.401 52.5947C436.499 54.0254 437.286 55.7161 437.762 57.6667C438.245 59.574 438.288 61.7195 437.89 64.1031C437.477 66.5735 436.707 68.65 435.58 70.3327C434.452 72.0154 433.072 73.3441 431.439 74.3186C429.857 75.2571 428.105 75.8776 426.183 76.1803C424.262 76.4829 422.326 76.4713 420.375 76.1455ZM421.016 71.909C422.403 72.1407 423.761 72.1448 425.09 71.9214C426.47 71.6619 427.709 71.1784 428.807 70.4709C429.906 69.7634 430.841 68.8283 431.615 67.6656C432.395 66.4595 432.927 65.0114 433.209 63.3211C433.491 61.6309 433.459 60.0886 433.113 58.6942C432.81 57.3072 432.258 56.0789 431.456 55.0095C430.655 53.94 429.644 53.0583 428.423 52.3644C427.246 51.6776 425.921 51.2112 424.447 50.965C423.017 50.726 421.612 50.7363 420.232 50.9958C418.903 51.2192 417.686 51.7063 416.58 52.4572C415.482 53.1647 414.543 54.1215 413.762 55.3275C413.032 56.4975 412.529 57.9059 412.254 59.5528C411.972 61.2431 412 62.807 412.34 64.2447C412.686 65.639 413.26 66.8709 414.061 67.9404C414.87 68.9665 415.863 69.8229 417.04 70.5096C418.261 71.2036 419.586 71.67 421.016 71.909Z" fill="white"/>
<path d="M463.496 87.2383C461.247 86.4987 459.336 85.5013 457.764 84.2458C456.192 82.9904 454.973 81.5741 454.106 79.9968C453.254 78.3779 452.754 76.6674 452.608 74.8653C452.462 73.0632 452.697 71.2249 453.313 69.3503C454.216 66.6009 455.767 64.4105 457.965 62.779C460.218 61.1196 463.023 60.4493 466.38 60.7683C465.629 60.2445 464.919 59.5957 464.25 58.8219C463.637 58.0201 463.148 57.1208 462.783 56.1239C462.418 55.1269 462.192 54.0601 462.104 52.9234C462.058 51.8004 462.24 50.614 462.651 49.3643C463.198 47.698 463.983 46.2942 465.004 45.1529C466.039 43.97 467.235 43.0706 468.591 42.4549C469.961 41.7975 471.457 41.4585 473.079 41.438C474.757 41.3895 476.491 41.6597 478.282 42.2486C480.073 42.8375 481.609 43.6424 482.889 44.6633C484.224 45.6562 485.248 46.8237 485.961 48.1659C486.688 49.4664 487.117 50.8998 487.248 52.4663C487.393 53.991 487.192 55.5865 486.644 57.2528C486.234 58.5025 485.656 59.5588 484.91 60.4216C484.207 61.2981 483.413 62.0294 482.528 62.6155C481.643 63.2015 480.695 63.6284 479.684 63.896C478.728 64.1357 477.772 64.2367 476.815 64.199C478.274 65.0944 479.464 66.1087 480.384 67.242C481.318 68.3336 481.988 69.5234 482.396 70.8114C482.859 72.0714 483.072 73.3878 483.036 74.7608C483.001 76.1338 482.757 77.5076 482.305 78.8823C481.689 80.7569 480.788 82.3761 479.601 83.7399C478.414 85.1038 476.997 86.1843 475.351 86.9815C473.718 87.737 471.896 88.1536 469.886 88.2312C467.876 88.3088 465.746 87.9778 463.496 87.2383ZM464.831 83.1767C467.83 84.1628 470.52 84.124 472.901 83.0603C475.281 81.9966 476.944 80.0276 477.888 77.1532C478.833 74.2789 478.649 71.749 477.337 69.5634C476.038 67.3362 473.889 65.7295 470.889 64.7434C467.89 63.7574 465.207 63.7753 462.84 64.7974C460.487 65.7777 458.838 67.7051 457.894 70.5794C456.949 73.4538 457.119 76.0254 458.405 78.2943C459.69 80.5632 461.832 82.1906 464.831 83.1767ZM472.121 60.9943C474.538 61.7886 476.624 61.6899 478.381 60.6981C480.151 59.6647 481.372 58.1274 482.043 56.0862C482.782 53.8367 482.718 51.854 481.851 50.138C480.998 48.3804 479.363 47.1045 476.947 46.3102C474.531 45.5158 472.459 45.5729 470.729 46.4814C469.014 47.3482 467.786 48.9063 467.047 51.1558C466.376 53.197 466.447 55.1589 467.259 57.0414C468.085 58.8823 469.705 60.2 472.121 60.9943Z" fill="white"/>
<path d="M493.982 96.3803L514.983 87.0603C517.199 86.0792 519.062 85.1641 520.573 84.3148C522.143 83.4465 523.429 82.6054 524.432 81.7915C525.494 80.9586 526.36 80.1242 527.03 79.2885C527.72 78.4137 528.333 77.4505 528.869 76.3987C530.058 74.0614 530.268 72.0103 529.499 70.2453C528.749 68.4414 527.303 66.9941 525.161 65.9035C521.733 64.1584 517.853 64.1695 513.521 65.9368L512.111 62.2026C512.994 61.7202 514.013 61.3073 515.169 60.9637C516.363 60.64 517.616 60.4438 518.926 60.375C520.275 60.3261 521.662 60.4436 523.087 60.7276C524.57 60.9924 526.052 61.5016 527.533 62.2551C529.324 63.1673 530.763 64.2431 531.849 65.4825C532.954 66.683 533.737 67.9886 534.196 69.3995C534.675 70.7714 534.831 72.1996 534.664 73.6841C534.497 75.1686 534.047 76.6315 533.313 78.0729C532.699 79.2805 531.967 80.4286 531.119 81.5172C530.33 82.5867 529.345 83.6059 528.165 84.5749C527.025 85.5636 525.63 86.5213 523.981 87.4477C522.372 88.394 520.459 89.3577 518.243 90.3387L503.097 96.9738L520.333 105.749L518.4 109.547L493.685 96.9646L493.982 96.3803Z" fill="white"/>
<path d="M545.508 126.695C543.809 125.478 542.389 124.059 541.248 122.438C540.142 120.842 539.39 119.125 538.992 117.288C538.595 115.45 538.618 113.511 539.061 111.472C539.504 109.433 540.448 107.405 541.893 105.387C543.794 102.733 546.142 100.613 548.937 99.0271C551.768 97.467 555.042 96.0366 558.758 94.7358L572.99 89.6686L577.343 92.7873L577.038 93.212L554.18 101.016C555.754 100.912 557.32 101.043 558.878 101.409C560.472 101.801 562.012 102.53 563.498 103.595C564.949 104.634 566.157 105.901 567.121 107.396C568.147 108.88 568.823 110.516 569.149 112.303C569.501 114.055 569.464 115.902 569.036 117.845C568.634 119.752 567.735 121.68 566.341 123.626C564.896 125.644 563.305 127.155 561.568 128.16C559.831 129.165 558.024 129.744 556.146 129.899C554.329 130.043 552.5 129.83 550.659 129.261C548.818 128.692 547.101 127.836 545.508 126.695ZM547.927 123.206C549.059 124.018 550.265 124.614 551.545 124.995C552.886 125.367 554.199 125.477 555.484 125.327C556.77 125.177 558.01 124.754 559.205 124.057C560.426 123.325 561.53 122.268 562.519 120.888C563.508 119.508 564.152 118.122 564.453 116.73C564.788 115.364 564.833 114.03 564.587 112.729C564.341 111.428 563.826 110.203 563.043 109.053C562.296 107.928 561.32 106.935 560.117 106.073C558.949 105.236 557.695 104.632 556.354 104.261C555.075 103.879 553.779 103.781 552.468 103.967C551.183 104.117 549.93 104.558 548.709 105.29C547.549 106.012 546.488 107.046 545.525 108.391C544.536 109.771 543.879 111.175 543.553 112.602C543.253 113.993 543.226 115.34 543.472 116.641C543.743 117.906 544.253 119.102 545.001 120.226C545.783 121.376 546.759 122.37 547.927 123.206Z" fill="white"/>
<path d="M581.006 156.728C579.52 155.273 578.337 153.662 577.46 151.893C576.614 150.156 576.134 148.352 576.022 146.484C575.91 144.615 576.226 142.712 576.971 140.773C577.716 138.833 578.952 136.981 580.68 135.215C582.953 132.891 585.585 131.162 588.576 130.026C591.597 128.92 595.035 128.009 598.889 127.293L613.659 124.465L617.469 128.193L617.105 128.565L593.432 132.777C594.997 132.913 596.518 133.28 597.995 133.877C599.503 134.504 600.908 135.454 602.209 136.727C603.479 137.97 604.475 139.4 605.198 141.017C605.981 142.633 606.399 144.344 606.449 146.152C606.53 147.929 606.212 149.741 605.497 151.588C604.812 153.404 603.636 155.164 601.969 156.868C600.241 158.634 598.447 159.879 596.586 160.604C594.724 161.33 592.858 161.626 590.987 161.493C589.178 161.359 587.41 160.873 585.685 160.034C583.96 159.194 582.4 158.092 581.006 156.728ZM583.915 153.662C584.906 154.632 586.002 155.402 587.204 155.971C588.466 156.54 589.741 156.848 591.029 156.895C592.317 156.942 593.601 156.714 594.883 156.209C596.195 155.674 597.442 154.802 598.624 153.594C599.806 152.386 600.65 151.12 601.156 149.796C601.694 148.503 601.94 147.198 601.895 145.88C601.85 144.563 601.53 143.279 600.934 142.029C600.369 140.809 599.56 139.683 598.507 138.653C597.485 137.652 596.342 136.868 595.079 136.299C593.878 135.73 592.618 135.437 591.301 135.421C590.013 135.374 588.713 135.618 587.401 136.153C586.151 136.688 584.95 137.544 583.798 138.721C582.616 139.929 581.757 141.211 581.22 142.565C580.713 143.889 580.482 145.209 580.527 146.527C580.603 147.813 580.923 149.067 581.488 150.286C582.084 151.537 582.893 152.662 583.915 153.662Z" fill="white"/>
<path d="M623.668 184.145L610.832 167.156L612.226 166.102L651.977 166.966L652.757 167.999L629.833 185.326L633.306 189.922L629.95 192.458L626.477 187.863L616.099 195.707L613.29 191.989L623.668 184.145ZM627.024 181.608L641.068 170.993L618.597 170.454L627.024 181.608Z" fill="white"/>
</svg>
